<svg width="205" height="38" viewBox="0 0 205 38" fill="none" xmlns="http://www.w3.org/2000/svg">
<path d="M38.0881 17.1C35.8742 17.1 33.682 16.6577 31.6366 15.7983C29.5912 14.939 27.7327 13.6794 26.1673 12.0915C24.6018 10.5036 23.36 8.61855 22.5128 6.54389C21.6655 4.46922 21.2295 2.2456 21.2295 0L27.9729 2.98986e-07C27.9729 1.34736 28.2346 2.68153 28.7429 3.92633C29.2513 5.17113 29.9963 6.30219 30.9356 7.25492C31.8749 8.20765 32.99 8.96339 34.2172 9.479C35.4444 9.99462 36.7598 10.26 38.0881 10.26V17.1Z" fill="#388E3C"/>
<path d="M16.8587 0C16.8587 2.2456 16.4226 4.46922 15.5754 6.54389C14.7281 8.61855 13.4863 10.5036 11.9209 12.0915C10.3554 13.6794 8.49691 14.939 6.45153 15.7983C4.40614 16.6577 2.21391 17.1 0 17.1L2.94766e-07 10.26C1.32835 10.26 2.64369 9.99462 3.87092 9.47901C5.09815 8.96339 6.21324 8.20765 7.15252 7.25492C8.09181 6.30219 8.83689 5.17113 9.34522 3.92633C9.85356 2.68153 10.1152 1.34736 10.1152 0H16.8587Z" fill="#FBC02D"/>
<path d="M0 20.9C2.21391 20.9 4.40614 21.3423 6.45153 22.2017C8.49691 23.061 10.3554 24.3206 11.9209 25.9085C13.4863 27.4964 14.7281 29.3814 15.5754 31.4561C16.4226 33.5308 16.8587 35.7544 16.8587 38L10.1152 38C10.1152 36.6526 9.85356 35.3185 9.34522 34.0737C8.83688 32.8289 8.0918 31.6978 7.15252 30.7451C6.21324 29.7924 5.09815 29.0366 3.87092 28.521C2.64369 28.0054 1.32835 27.74 0 27.74L0 20.9Z" fill="#D32F2F"/>
<path d="M21.2295 38C21.2295 35.7544 21.6655 33.5308 22.5128 31.4561C23.36 29.3814 24.6018 27.4964 26.1673 25.9085C27.7327 24.3206 29.5912 23.061 31.6366 22.2017C33.682 21.3423 35.8742 20.9 38.0881 20.9L38.0881 27.74C36.7598 27.74 35.4444 28.0054 34.2172 28.521C32.99 29.0366 31.8749 29.7924 30.9356 30.7451C29.9963 31.6978 29.2512 32.8289 28.7429 34.0737C28.2346 35.3185 27.9729 36.6526 27.9729 38H21.2295Z" fill="#F57C00"/>
<ellipse cx="3.43417" cy="3.48333" rx="3.43417" ry="3.48333" fill="#FBC02D"/>
<ellipse cx="34.4342" cy="3.48333" rx="3.43417" ry="3.48333" fill="#388E3C"/>
<ellipse cx="34.4342" cy="34.4833" rx="3.43417" ry="3.48333" fill="#F57C00"/>
<ellipse cx="3.43417" cy="34.5167" rx="3.43417" ry="3.48333" fill="#D32F2F"/>
<path d="M193.696 11.0023C193.954 11.9447 194.238 13.463 194.548 15.5573C194.651 16.0546 194.78 16.8007 194.935 17.7955C195.451 20.5441 195.838 22.3897 196.096 23.3321C196.225 23.1226 196.354 22.4682 196.483 21.3687C196.638 20.2693 196.793 19.0913 196.948 17.8347C197.206 15.5311 197.425 13.7903 197.606 12.6123C197.812 11.4081 198.019 10.8453 198.225 10.9238C199.051 10.9238 199.683 10.9107 200.122 10.8845L202.174 10.8453L205 10.9238C204.69 12.1541 204.277 13.9211 203.761 16.2248C203.451 17.6384 203.168 18.8426 202.91 19.8373C202.987 19.5494 202.729 20.5703 202.135 22.9001C201.387 26.0938 200.6 28.6854 199.774 30.6749C198.974 32.6644 197.658 34.366 195.825 35.7796C194.019 37.1932 191.528 37.9 188.354 37.9C187.76 37.9 187.154 37.8738 186.534 37.8215C186.224 36.8529 186.07 35.7796 186.07 34.6016C186.07 33.7901 186.147 33.0047 186.302 32.2456C187.231 32.2456 187.837 32.2587 188.121 32.2849C188.405 32.311 188.805 32.3241 189.321 32.3241C190.689 32.3241 191.373 31.6566 191.373 30.3215L191.334 29.8111C190.612 25.7535 189.309 20.23 187.425 13.2405V13.2798C187.218 12.7562 186.986 11.9185 186.728 10.7667C187.502 10.8976 188.212 10.9631 188.857 10.9631L191.528 10.9238C192.328 10.9238 192.883 10.95 193.193 11.0023H193.696Z" fill="#344568"/>
<path d="M177.284 10.8058C178.626 10.7535 179.814 10.688 180.846 10.6095L181.388 10.5702C181.569 10.5441 181.749 10.5441 181.93 10.5702C182.136 10.5702 182.304 10.5702 182.433 10.5702H183.324C183.427 11.6174 183.478 12.2194 183.478 12.3765C183.478 12.5074 183.453 12.9132 183.401 13.5938L183.362 14.0257L183.324 14.8896C183.324 15.0728 183.349 15.3739 183.401 15.7927H177.362C177.362 19.955 177.349 22.5073 177.323 23.4497C177.71 23.9471 178.407 24.3136 179.414 24.5492C180.42 24.7848 181.465 24.9026 182.549 24.9026L183.362 24.8633V25.2167L183.401 25.3738V25.3345C183.556 26.434 183.633 27.4156 183.633 28.2795C183.633 29.1172 183.517 29.8764 183.285 30.557C182.614 30.6093 181.93 30.6355 181.233 30.6355C178.885 30.6355 176.82 30.3606 175.039 29.8109C173.284 29.235 172.123 28.2664 171.555 26.9052C171.323 25.4916 171.168 24.0911 171.09 22.7036C171.013 21.29 170.974 19.6801 170.974 17.8738V15.9105C170.639 15.9367 170.329 15.9498 170.045 15.9498C169.787 15.9236 169.555 15.9105 169.348 15.9105H168.187L168.303 10.7273C169 10.7535 169.916 10.7666 171.052 10.7666L171.09 3.26664C171.658 3.21429 172.149 3.18811 172.562 3.18811C172.974 3.18811 173.465 3.21429 174.033 3.26664L174.304 3.30591C174.923 3.35827 175.4 3.38444 175.736 3.38444C176.226 3.38444 176.73 3.34518 177.246 3.26664V10.4132L177.284 10.8058Z" fill="#344568"/>
<path d="M165.747 10.6489C165.747 12.0101 165.721 13.9996 165.67 16.6174L165.631 18.8163C165.579 21.2247 165.553 23.0309 165.553 24.2351C165.553 26.4864 165.605 28.4628 165.708 30.1644C165.579 30.3476 165.308 30.4654 164.895 30.5178C164.508 30.5963 163.966 30.6356 163.269 30.6356C162.469 30.6356 161.915 30.6225 161.605 30.5963C160.598 30.544 159.747 30.6225 159.05 30.8319C159.179 29.078 159.243 27.311 159.243 25.5309C159.243 24.4315 159.218 22.8084 159.166 20.6619C159.114 18.8818 159.089 17.3373 159.089 16.0284C159.089 14.0912 159.166 12.2195 159.321 10.4133C159.682 10.3609 159.992 10.3347 160.25 10.3347C160.482 10.3347 160.663 10.3478 160.792 10.374C162.392 10.4525 163.644 10.4787 164.547 10.4525L165.747 10.6489Z" fill="#7B1FA2"/>
<path d="M148.222 22.3503C148.48 21.12 148.751 19.6409 149.035 17.9132C149.628 14.5624 150.196 12.1672 150.738 10.7274L152.712 10.6881C153.693 10.6358 154.454 10.6096 154.996 10.6096C155.874 10.6096 156.558 10.6358 157.048 10.6881C156.455 12.3635 155.926 14.1305 155.461 15.9891C154.996 17.8477 154.454 20.243 153.835 23.1749C153.112 26.5257 152.545 28.9864 152.132 30.557C151.228 30.7141 150.119 30.7926 148.802 30.7926L143.77 30.7141C142.531 23.0702 141.137 16.3163 139.589 10.4525C140.26 10.5834 141.008 10.6488 141.834 10.6488C142.376 10.6488 142.789 10.6358 143.073 10.6096L144.389 10.5703C144.931 10.5703 145.538 10.6096 146.209 10.6881L147.022 15.4786C147.46 18.4367 147.86 20.7273 148.222 22.3503Z" fill="#344568"/>
<path d="M137.265 10.6489C137.265 12.0101 137.239 13.9996 137.187 16.6174L137.149 18.8163C137.097 21.2247 137.071 23.0309 137.071 24.2351C137.071 26.4864 137.123 28.4628 137.226 30.1644C137.097 30.3476 136.826 30.4654 136.413 30.5178C136.026 30.5963 135.484 30.6356 134.787 30.6356C133.987 30.6356 133.432 30.6225 133.123 30.5963C132.116 30.544 131.264 30.6225 130.568 30.8319C130.697 29.078 130.761 27.311 130.761 25.5309C130.761 24.4315 130.735 22.8084 130.684 20.6619C130.632 18.8818 130.606 17.3373 130.606 16.0284C130.606 14.0912 130.684 12.2195 130.839 10.4133C131.2 10.3609 131.51 10.3347 131.768 10.3347C132 10.3347 132.181 10.3478 132.31 10.374C133.91 10.4525 135.162 10.4787 136.065 10.4525L137.265 10.6489Z" fill="#1976D2"/>
<path d="M121.945 10.8058C123.287 10.7535 124.475 10.688 125.507 10.6095L126.049 10.5702C126.23 10.5441 126.41 10.5441 126.591 10.5702C126.797 10.5702 126.965 10.5702 127.094 10.5702H127.984C128.088 11.6174 128.139 12.2194 128.139 12.3765C128.139 12.5074 128.114 12.9132 128.062 13.5938L128.023 14.0257L127.984 14.8896C127.984 15.0728 128.01 15.3739 128.062 15.7927H122.023C122.023 19.955 122.01 22.5073 121.984 23.4497C122.371 23.9471 123.068 24.3136 124.075 24.5492C125.081 24.7848 126.126 24.9026 127.21 24.9026L128.023 24.8633V25.2167L128.062 25.3738V25.3345C128.217 26.434 128.294 27.4156 128.294 28.2795C128.294 29.1172 128.178 29.8764 127.946 30.557C127.275 30.6093 126.591 30.6355 125.894 30.6355C123.545 30.6355 121.481 30.3606 119.7 29.8109C117.945 29.235 116.784 28.2664 116.216 26.9052C115.984 25.4916 115.829 24.0911 115.751 22.7036C115.674 21.29 115.635 19.6801 115.635 17.8738V15.9105C115.3 15.9367 114.99 15.9498 114.706 15.9498C114.448 15.9236 114.216 15.9105 114.009 15.9105H112.848L112.964 10.7273C113.661 10.7535 114.577 10.7666 115.713 10.7666L115.751 3.26664C116.319 3.21429 116.809 3.18811 117.222 3.18811C117.635 3.18811 118.126 3.21429 118.693 3.26664L118.964 3.30591C119.584 3.35827 120.061 3.38444 120.397 3.38444C120.887 3.38444 121.39 3.34518 121.907 3.26664V10.4132L121.945 10.8058Z" fill="#344568"/>
<path d="M103.909 11.2328C104.038 11.2066 104.193 11.1542 104.374 11.0757C104.58 10.971 104.774 10.8925 104.954 10.8401C106.038 10.4998 107.445 10.3296 109.174 10.3296C110.439 10.3296 111.071 10.3951 111.071 10.526L111.032 12.5678L111.071 17.8688L110.026 17.5154L107.78 16.9657C107.161 16.8872 106.606 16.8479 106.116 16.8479C105.316 16.8479 104.709 17.0442 104.296 17.4369C103.883 17.8296 103.69 18.5102 103.716 19.4788C103.819 22.6986 103.871 26.2065 103.871 30.0022C103.199 30.1855 102.645 30.2902 102.206 30.3164C101.767 30.3687 101.212 30.3818 100.541 30.3556C100.283 30.3295 99.8702 30.3164 99.3024 30.3164C98.683 30.3164 98.0894 30.3425 97.5217 30.3949C97.5217 27.2536 97.5088 24.9237 97.4829 23.4054C97.4313 20.0023 97.4055 17.4238 97.4055 15.6699C97.4055 14.3872 97.4313 12.5678 97.4829 10.2118C98.3088 10.3165 98.954 10.3689 99.4186 10.3689C100.09 10.3689 100.748 10.3296 101.393 10.2511C102.012 10.1726 102.619 10.1333 103.212 10.1333C103.651 10.1333 103.871 10.1726 103.871 10.2511L103.909 11.1935V11.2328Z" fill="#344568"/>
<path d="M96.3579 4.51567C94.9126 5.74602 94.048 6.64916 93.7641 7.22507C93.2222 7.3036 92.4221 7.34287 91.364 7.34287C90.6413 7.34287 89.8929 7.3036 89.1186 7.22507C88.3702 7.14653 87.8024 7.05491 87.4153 6.9502C88.0347 6.42664 88.8993 5.56278 90.009 4.3586C91.9188 2.36909 93.4286 0.916221 94.5384 0L97.6741 3.33767L96.3579 4.51567ZM94.3448 10.3664C94.3448 11.7276 94.319 13.7172 94.2674 16.3349L94.2287 18.5339C94.1771 20.9422 94.1513 22.7485 94.1513 23.9527C94.1513 26.204 94.2029 28.1804 94.3061 29.8819C94.1771 30.0652 93.9061 30.183 93.4931 30.2353C93.106 30.3139 92.564 30.3531 91.8672 30.3531C91.0672 30.3531 90.5123 30.34 90.2026 30.3139C89.1961 30.2615 88.3444 30.34 87.6476 30.5495C87.7766 28.7956 87.8411 27.0286 87.8411 25.2485C87.8411 24.149 87.8153 22.526 87.7637 20.3794C87.7121 18.5993 87.6863 17.0548 87.6863 15.7459C87.6863 13.8088 87.7637 11.9371 87.9185 10.1308C88.2799 10.0784 88.5896 10.0523 88.8476 10.0523C89.0799 10.0523 89.2606 10.0654 89.3896 10.0915C90.9897 10.1701 92.2414 10.1962 93.1447 10.1701L94.3448 10.3664Z" fill="#344568"/>
<path d="M76.692 22.0311C76.95 20.8007 77.221 19.3217 77.5049 17.594C78.0985 14.2432 78.6663 11.8479 79.2083 10.4082L81.1826 10.3689C82.1633 10.3165 82.9247 10.2904 83.4666 10.2904C84.3441 10.2904 85.028 10.3165 85.5184 10.3689C84.9248 12.0443 84.3957 13.8113 83.9312 15.6699C83.4666 17.5285 82.9247 19.9238 82.3053 22.8557C81.5826 26.2065 81.0149 28.6672 80.6019 30.2378C79.6986 30.3949 78.5889 30.4734 77.2726 30.4734L72.24 30.3949C71.0012 22.751 69.6076 15.9971 68.0591 10.1333C68.7301 10.2642 69.4785 10.3296 70.3044 10.3296C70.8464 10.3296 71.2593 10.3165 71.5432 10.2904L72.8594 10.2511C73.4014 10.2511 74.0079 10.2904 74.6789 10.3689L75.4919 15.1594C75.9306 18.1175 76.3306 20.4081 76.692 22.0311Z" fill="#344568"/>
<path d="M68.1901 30.1116C67.3384 30.321 66.4222 30.4258 65.4415 30.4258C64.9512 30.4258 64.2672 30.3996 63.3898 30.3472C63.1059 30.321 62.5768 30.308 61.8025 30.308C61.1057 29.4703 60.4863 28.5409 59.9443 27.52C59.4024 26.4729 58.7959 25.1771 58.1249 23.6326C57.9958 23.3708 57.8797 23.0829 57.7764 22.7687C57.699 22.4284 57.6603 22.2321 57.6603 22.1797L57.5442 21.7085L57.3893 21.1981C57.3893 22.5331 57.4151 24.1954 57.4667 26.1849C57.5184 27.808 57.5442 29.1038 57.5442 30.0723C56.6151 30.3341 55.5311 30.465 54.2923 30.465C53.0277 30.465 51.8405 30.3341 50.7308 30.0723C50.6275 27.7949 50.5759 25.2164 50.5759 22.3368C50.5759 19.2217 50.6146 16.1196 50.6921 13.0306C50.7695 9.88928 50.8082 6.39455 50.8082 2.54641C51.6599 2.52024 52.86 2.53333 54.4085 2.58568C54.8988 2.61186 55.815 2.62495 57.157 2.62495C57.1829 3.6197 57.1958 6.05424 57.1958 9.92855V10.7139C58.0474 9.32646 58.7443 8.06993 59.2862 6.94428C60.1895 5.19037 61.0541 3.72441 61.88 2.54641L64.435 2.58568C65.7512 2.53333 66.99 2.59877 68.1514 2.78202C67.8417 3.88148 67.4159 4.98095 66.8739 6.08042C66.3319 7.1537 65.5706 8.55422 64.5898 10.2819L64.3576 10.6746C63.3769 12.2453 62.4348 14.0515 61.5316 16.0934L68.1901 30.1116Z" fill="#344568"/>
<ellipse cx="134.434" cy="5.48333" rx="3.43417" ry="3.48333" fill="#1976D2"/>
<ellipse cx="162.434" cy="5.48333" rx="3.43417" ry="3.48333" fill="#7B1FA2"/>
</svg>
